<svg xmlns="http://www.w3.org/2000/svg" width="1400" height="900" viewBox="0 0 1400 900"><defs><linearGradient id="bg" x1="0" x2="1" y1="0" y2="1"><stop offset="0%" stop-color="#0b4aa8"/><stop offset="100%" stop-color="#2d73df"/></linearGradient><linearGradient id="gold" x1="0" x2="1" y1="0" y2="1"><stop offset="0%" stop-color="#ff9f1c"/><stop offset="100%" stop-color="#ffd27b"/></linearGradient></defs><rect width="1400" height="900" rx="48" fill="#f8fbff"/><rect x="40" y="40" width="1320" height="820" rx="42" fill="url(#bg)"/><circle cx="1120" cy="190" r="120" fill="#fff" fill-opacity=".10"/><circle cx="1260" cy="760" r="180" fill="#fff" fill-opacity=".08"/><circle cx="120" cy="110" r="90" fill="#ff9f1c" fill-opacity=".18"/><rect x="100" y="110" width="120" height="120" rx="28" fill="#fff"/><circle cx="160" cy="165" r="34" fill="url(#gold)"/><rect x="126" y="210" width="68" height="12" rx="6" fill="#0b4aa8"/><text x="270" y="170" font-size="52" font-family="Arial" font-weight="700" fill="#fff">Balaji eMitra</text><text x="270" y="225" font-size="28" font-family="Arial" fill="#dbe4ff">Trusted eMitra &amp; CSC Service Centre</text><text x="110" y="340" font-size="74" font-family="Arial" font-weight="700" fill="#fff">ऑनलाइन सेवाएं</text><text x="110" y="415" font-size="74" font-family="Arial" font-weight="700" fill="#fff">अब आसान और तेज</text><text x="110" y="500" font-size="30" font-family="Arial" fill="#dbe4ff">Forms • Certificates • Bill Payment • Aadhaar • Scholarship • Print/Scan</text><rect x="110" y="560" width="300" height="72" rx="22" fill="url(#gold)"/><text x="260" y="605" text-anchor="middle" font-size="30" font-family="Arial" font-weight="700" fill="#083272">Visit Our Centre</text><g transform="translate(930 320)"><rect x="0" y="0" width="310" height="340" rx="30" fill="#fff" fill-opacity=".97"/><circle cx="155" cy="90" r="48" fill="url(#gold)"/><path d="M83 188c0-39.8 32.2-72 72-72h0c39.8 0 72 32.2 72 72v13c0 8.8-7.2 16-16 16H99c-8.8 0-16-7.2-16-16z" fill="#0b4aa8" fill-opacity=".14"/><rect x="70" y="240" width="170" height="26" rx="13" fill="#0b4aa8" fill-opacity=".12"/><rect x="95" y="282" width="120" height="26" rx="13" fill="#ff9f1c" fill-opacity=".35"/><text x="155" y="286" text-anchor="middle" font-size="16" font-family="Arial" font-weight="700" fill="#083272">Government Help</text></g></svg>